/* XPM */
static char *a340c9da6f684754ef11c7068b3b47f1RMW06J1bY4nIrtCL[] = {
/* columns rows colors chars-per-pixel */
"50 50 241 2 ",
"   c #010001",
".  c #0A0000",
"X  c #090A0C",
"o  c #110100",
"O  c #1B0100",
"+  c #020B16",
"@  c #00121C",
"#  c #011313",
"$  c #131313",
"%  c #1C1C1D",
"&  c #151818",
"*  c #1B170B",
"=  c #211E1F",
"-  c #2E1100",
";  c #2C241B",
":  c #000E23",
">  c #051724",
",  c #1D1D20",
"<  c #0E2226",
"1  c #19242B",
"2  c #1A2832",
"3  c #00213C",
"4  c #242424",
"5  c #292924",
"6  c #2C2B2B",
"7  c #292726",
"8  c #342B2C",
"9  c #372B2C",
"0  c #36322D",
"q  c #292E33",
"w  c #2A3337",
"e  c #333333",
"r  c #3C3C3C",
"t  c #393535",
"y  c #302F34",
"u  c #4D3618",
"i  c #433D3B",
"p  c #4A3829",
"a  c #364433",
"s  c #47413F",
"d  c #5D4B37",
"f  c #644927",
"g  c #76572D",
"h  c #644B37",
"j  c #68543B",
"k  c #735539",
"l  c #7E603A",
"z  c #003053",
"x  c #363C42",
"c  c #453F40",
"v  c #154F55",
"b  c #374349",
"n  c #3D5B5B",
"m  c #004566",
"M  c #005575",
"N  c #185979",
"B  c #345462",
"V  c #00607E",
"C  c #2F6778",
"Z  c #346770",
"A  c #444443",
"S  c #4C4C4C",
"D  c #474849",
"F  c #555455",
"G  c #595A5A",
"H  c #495156",
"J  c #655E58",
"K  c #6E5A45",
"L  c #536148",
"P  c #69685A",
"I  c #786956",
"U  c #706E53",
"Y  c #566865",
"T  c #5E7275",
"R  c #646364",
"E  c #6C6C6B",
"W  c #787878",
"Q  c #6F7271",
"!  c #835E34",
"~  c #856339",
"^  c #94754F",
"/  c #997959",
"(  c #8B7253",
")  c #A97F59",
"_  c #817C6B",
"`  c #937C6A",
"'  c #778679",
"]  c #9D8263",
"[  c #988B78",
"{  c #8F9077",
"}  c #A6866A",
"|  c #A79279",
" . c #B69778",
".. c #B19272",
"X. c #BD8852",
"o. c #CC9253",
"O. c #E39E53",
"+. c #EBA25D",
"@. c #C59D6D",
"#. c #DCAB6F",
"$. c #DBB17E",
"%. c #D1A876",
"&. c #EDB363",
"*. c #E9B878",
"=. c #E5AD70",
"-. c #FDC974",
";. c #FAC97C",
":. c #F0C476",
">. c #185B92",
",. c #006A82",
"<. c #027787",
"1. c #1C799F",
"2. c #1F6184",
"3. c #24749C",
"4. c #2A718E",
"5. c #1D6CA5",
"6. c #007ABB",
"7. c #1D75A9",
"8. c #2879A5",
"9. c #637780",
"0. c #566C81",
"q. c #037AC9",
"w. c #0778D2",
"e. c #1783BC",
"r. c #1E89A6",
"t. c #2E92AD",
"y. c #2BA7B5",
"u. c #258790",
"i. c #5BA2AB",
"p. c #47AEB8",
"a. c #75ACB0",
"s. c #4C9FB1",
"d. c #0081CF",
"f. c #1789C9",
"g. c #0788D5",
"h. c #0998DD",
"j. c #1892D1",
"k. c #2B93C7",
"l. c #1EAAD7",
"z. c #39B3C0",
"x. c #1DB7EE",
"c. c #0EAFE8",
"v. c #31BAE7",
"b. c #43BDC8",
"n. c #4FB9E1",
"m. c #0AC7ED",
"M. c #18CAF4",
"N. c #0CD5F2",
"B. c #08D5F4",
"V. c #15D9F3",
"C. c #11D0EF",
"Z. c #20C9E7",
"A. c #27D8ED",
"S. c #3AD5E7",
"D. c #38E3F5",
"F. c #55D4EC",
"G. c #8B8B8B",
"H. c #848584",
"J. c #97958B",
"K. c #969696",
"L. c #9C9C9C",
"P. c #979998",
"I. c #8B9390",
"U. c #A39587",
"Y. c #B49E87",
"T. c #A79D94",
"R. c #96A095",
"E. c #BAA58A",
"W. c #A6A19B",
"Q. c #B4A79B",
"!. c #A4A4A3",
"~. c #ABABAB",
"^. c #ABA7A6",
"/. c #AFAFB1",
"(. c #B5B5B5",
"). c #BCBCBC",
"_. c #B4AFA8",
"`. c #9AA8B1",
"'. c #C7A987",
"]. c #D8B68C",
"[. c #CAB39B",
"{. c #D5B89A",
"}. c #CCAF90",
"|. c #E8BD87",
" X c #E0BC9A",
".X c #C7B9A6",
"XX c #CCBEB3",
"oX c #FDC983",
"OX c #E8C496",
"+X c #F6CA98",
"@X c #FCD393",
"#X c #D3C1B2",
"$X c #D4C4B0",
"%X c #F9D7AA",
"&X c #E7CDB8",
"*X c #F5DBB5",
"=X c #F6DCB9",
"-X c #E9CEAE",
";X c #FFE4B7",
":X c #8EC8CE",
">X c #BDCBCE",
",X c #C3C3C3",
"<X c #CCCCCC",
"1X c #D4D4D4",
"2X c #DCDCDC",
"3X c #DBDAD2",
"4X c #D9D1C7",
"5X c #E6D7C8",
"6X c #E9DCD1",
"7X c #F9E4C6",
"8X c #EAE1D7",
"9X c #F1E4D4",
"0X c #C4E7EB",
"qX c #DEE9EC",
"wX c #E4E4E4",
"eX c #ECECEC",
"rX c #EBE7E2",
"tX c #F2EDE8",
"yX c #F2F1EE",
"uX c #FEF7E7",
"iX c #EEEEF0",
"pX c #E9F9FA",
"aX c #F5F5F5",
"sX c #F3F3F3",
"dX c #FAF7F2",
"fX c #F6F8F7",
"gX c #FBF9F5",
"hX c #F5FCFC",
"jX c #F9F9F9",
"kX c #FBFBFB",
"lX c gray98",
"zX c #FAFAF9",
"xX c #FDFDFD",
"cX c gray99",
"vX c #FEFEFE",
"bX c white",
"nX c #FEFFFF",
"mX c #FEFEFD",
"MX c #FCFCFC",
"NX c #F8F7F8",
"BX c #F1EFF0",
/* pixels */
"vXvXvXsXeXeXsXvXvXvXeXeXeXjXvXvXjXeXeXeXvXvXvXaXeXeXsXvXvXvXeXeXeXjXvXvXjXeXeXeXvXvXvXsXeXeXsXvXvXvX",
"vXvXvXsXeXeXsXvXvXvXeXeXeXjXvXvXjXeXsXeXvXvXvXeXeXeXaXvXvXvXeXeXeXjXvXvXjXeXeXeXvXvXvXsXeXeXsXvXvXvX",
"vXvXvXsXeXeXsXvXvXjXsXeXeXjXvXvXjXwXP.eXxXvXkXR ).aXsXvXvXjXeXeXeXjXvXvXjXeXeXeXvXvXvXaXeXeXsXvXvXvX",
"eXeXeXNXvXvXjXeXeXsXjXvXkXaXsXeXvX1X  ,XaXaX,X    1XvXeXsXaXjXvXvXaXeXeXaXvXjXjXsXsXeXjXvXvXhXeXeXeX",
"eXeXeXjXvXvXjXeXeXeXMXvXeXH.eXeXaXK.$ D 2XsXQ 4 G D eXaX2X<XvXvXvXsXeXeXsXvXvXvXeXeXeXjXvXvXjXeXeXeX",
"iXeXeXjXvXvXjXeXeXeXjXvX<X  W eXwX6 F X ^.2X  r R 7 G.jX,X  sXvXvXaXeXeXsXvXvXvXeXeXeXjXvXvXjXeXeXeX",
"jXjXvXaXeXsXaXvXjXjXeXaXG.r % P.,X  F D E G.  r S J   wX).  I.aXeXfXvXvXaXsXyXsXjXjXjXaXeXsXaXvXjXjX",
"vXvXvXsXeXeXsXvXvXjXsXwXD e R e % 6 D F 6   e e D G   ~.G.6 $ ,XsXvX1XjXjXeXeXeXvXvXvXsXeXeXaXvXvXvX",
"vXvXvXsXeXeXsXvXvXwX).1X  A F F   y A S e 4 e e A S D r e D r W jX,X  wXvXeXeXeXvXvXvXsXeXeXsXvXvXvX",
"sXsXsXaXjXjXjXeXjX<X  W   r S S 6 6 e D e 7 8 e e D A   $ s S S ,XA   ~.jXjXjXjXsXsXsXjXjXjXfXBXsXsX",
"eXeXeXjXvXvXjXeXaX(.  & = 8 A D 7 6 6 r 6 6 6 6 6 r e % 6 e D e   S A W jXvXvXvXeXeXeXjXvXvXjXeXeXeX",
"eXeXeXjXvXvXjXeXaXL.  S $ 6 e r 4 7 6 e 4 7 6 7 6 8 6 4 6 8 i = 8 F A R BXvXvXMXeXeXeXjXvXvXjXeXeXeX",
"jXjXjXaXsXsXsXjXvXH.  r % % e 6 , 4 7 7 5 5 7 8 9 9 8 9 9 0 0 9 i s c J sXaXsXsXgXgXjXaXyXyXaXjXjXjX",
"vXvXvXsXeXeXsXvXxXQ   w 1 2 2 2 1 1 < < > > @ @ @ @ @ @ @ @ @ @ # < # Q fXeXeXeXMXvXvXaXeXeXsXvXvXvX",
"vXvXvXsXeXeXsXvXsX2 + @ : : : : : 3 z z z m m M M V ,.,.<.<.<.<.<.u.v a.hXeXeXeXvXvXvXsXeXeXsXvXvXvX",
"sXsXsXaXjXjXaXhX>Xv C N 2.4.3.3.8.8.5.7.e.f.j.l.l.x.Z.Z.Z.A.A.A.A.F.p.a.pXjXjXjXsXsXsXdXjXjXaXsXsXsX",
"eXeXeXhXvXvXaXpXa.s.n.e.f.f.f.f.f.f.q.w.g.g.h.c.c.c.m.C.N.N.N.V.V.D.b.i.pXvXvXvXeXeXeXjXvXvXjXeXeXeX",
"eXeXeXhXvXvXaXpXa.p.v.6.q.q.d.d.g.g.q.w.w.g.h.c.c.c.m.m.B.B.B.B.N.D.z.i.pXvXvXvXeXeXeXjXvXvXjXeXeXeX",
"aXaXhXaXsXaXsXhX:Xt.v.6.q.q.d.g.g.j.q.w.w.g.h.c.x.x.x.M.M.M.C.V.C.S.t.:XhXsXaXaXaXaXaXaXaXaXaXjXaXaX",
"vXvXvXsXeXeXsXhX:Xt.F.k.k.k.k.t.1.8.>.>.5.5.7.1.1.1.r.r.r.t.y.y.y.p.v 0XxXeXeXeXvXvXvXsXeXeXaXvXvXvX",
"vXvXvXsXeXeXsXhX0XZ i.4.Z Z B n P _ _ W G e G H.J.J.I.P.P.' a L U U ' xXhXeXeXeXvXvXvXsXeXeXsXvXvXvX",
"aXaXaXaXfXfXaXhXqXT Y ' { [ [ u g g ~ ^ ] } / ..].%X;X*X'./ / ^ ! u XXkXaXaXaXaXaXaXaXfXaXaXaXaXaXaX",
"eXeXeXjXvXvXjXeXaX3X( '.$.#.#.@./ / I d u f ( / g / ;X..- h p K U.[ rXeXsXvXvXvXeXeXeXjXvXvXjXeXeXeX",
"eXeXeXjXvXvXjXyX4XE.@.X.o.+.O.oX%.=XuX9X5X[.O k l OX;X ./ &X#XJ.Q.^.aXeXsXvXvXvXeXeXeXjXvXvXjXeXeXeX",
"aXaXaXaXaXaXaXdXY.{.OX+X=.O.&.;.*.].7XuXuX9Xj -X].%X%XOX$XuXuX5X_ 4XkXsXaXaXaXaXaXaXaXaXaXaXaXaXaXaX",
"vXvXvXsXeXeXsXMX[.{.%Xo.@X*.&.-.-.:.$.}.}.{.[.[.-X*X=X=X[..X.X#XT.tXvXvXjXeXeXeXvXvXvXsXeXeXsXvXvXvX",
"vXvXvXsXeXeXsXMX8XY.;XOX+X#.&.-.-.-.;.*.=.*.|. XE.I I .X7X*X*X7XT.dXvXvXjXeXeXeXvXvXvXsXeXeXsXvXvXvX",
"jXaXaXaXsXaXaXaXMX.XE.*X'.~ #.;.-.-.oXoX|.%.) f o ; 5 * [ $X=X&X_.kXaXaXjXjXsXaXaXaXaXaXsXsXaXjXjXjX",
"eXeXeXjXvXvXNXeXeXyX4XQ.4X5X^ |.@X:.@.] h o . ; i i A F t 0 P ; #XjXwXaXwXeXvXvXeXeXeXgXvXvXjXeXeXeX",
"eXeXeXjXvXvXjXeXeXeXvXvXvXdX5X..f - o .   7 y y 6 e t D G E e S eXjXsX,XE eXvXxXeXeXeXgXvXvXjXeXeXeX",
"sXsXsXaXjXjXaXsXsXsXfXjXjXyXdXtX.XJ       % % 7 6 6 r D e   E wXvXeXK.7 ).vXfXjXsXsXsXaXjXjXaXsXsXsX",
"vXvXvXsXeXeXsXvXvXvXeXeXeXjXvXvXvXeX<XL.F   & & & % 6 r Q ,XsXaX).F W K.sXeXeXiXvXvXvXsXeXeXsXvXvXvX",
"vXvXvXsXeXeXsXvXvXvXeXeXeXjXvXvXaXeXaXwXR $ % % 6 A   P.vXvXwXG.6 K.H.<XvXeXeXeXvXvXvXsXeXeXsXvXvXvX",
"jXjXjXaXsXsXaXjXjXjXsXsXsXaXjXjXaXsXsXG.  e 7 r 7 r 6 R aXvXL.X L.L.H.jXaXsXsXsXjXjXjXaXsXsXaXjXjXjX",
"eXeXeXjXvXvXjXeXeXeXvXvXvXsXeXeXyXvX2X4 D 1 q , 4 & b   _.rXG J.^.G <XsXsXvXvXvXeXeXeXjXvXvXjXeXeXeX",
"eXeXeXjXvXvXjXeXeXeXvXvXvXsXeXeXyXMXT.. *   w w 1 4 w t p [ W.J.G.).eXeXsXvXvXvXeXeXeXjXvXvXjXeXeXeX",
"sXsXsXaXjXjXaXsXsXsXjXjXjXaXsXeXaXtXK k ( j + > 1 q w & K Y.Q.U.gXjXsXsXaXvXjXjXsXsXsXaXvXjXjXsXsXsX",
"vXvXvXsXeXeXsXvXvXvXeXeXeXjXvXvXvXT.}.-X%X[.b 0.T Y 9.Y | ..I 8XyXaXvXvXjXeXeXeXvXvXvXsXeXeXsXvXvXvX",
"vXvXvXsXeXeXsXvXvXvXeXeXeXjXvXvXvXQ. .+X].| x B H H b b P [ 3XsXeXjXvXvXjXeXeXeXvXvXvXsXeXeXsXvXvXvX",
"vXjXvXaXeXeXaXvXjXjXsXeXeXaXjXjXfX8X ./ ] J   @ +   `.I.!.gXBXeXeXaXjXjXaXeXeXsXjXjXvXaXeXeXaXvXjXjX",
"eXeXeXjXvXvXjXeXeXeXjXjXjXeXwXwXwXyXrX6X5XW   G D   >XwX2X1XwXeXeXwXwXwXeXjXjXjXeXeXeXjXvXvXjXeXeXeX",
"eXeXeXjXvXvXaXwXwXwXeXeXeX2X<X<X<X<X<X<X^.  7 4 6 X A K.~.(.,X<X1X<X<X<X2XeXeXsXwXwXwXaXvXvXjXeXeXeX",
"sXeXeXaXjXjXsXwXwX2XwX2X1X<X).(.(.(.~.~.H.      e $ $   W !.~.~.(.(.(.).<X1X2XwX2XwXwXsXjXjXaXeXeXeX",
"vXvXvXsXeXwXeXsXeXwX1X<X,X,X,X).~.!.L.P.L.W W E R E E Q K.L.P.P.!.~.).).,X,X<X1XwXeXsXeXwXeXsXvXvXvX",
"vXvXvXsXeXwXeXaXsXeX1X1X<X<X<X,X).~.!.W.~.~.~.L.P.P.L.~.^.^.!.^.~.(.,X<X<X,X<X1XeXsXaXeXeXeXsXvXvXvX",
"vXvXvXaXeXeXsXjXaXsXwX2X2X2X2X2X1X,X).).,X).).(././.(.).,X,X).).,X1X2X2X2X2X2XwXsXaXjXsXeXeXaXvXvXvX",
"eXeXeXjXvXvXjXeXeXeXjXjXaXeXwXwXwXeXeXwX2X1X1X2XwXwX2X1X1X2XwXeXeXwXwXwXeXaXjXjXeXeXeXaXvXvXjXeXeXeX",
"eXeXeXjXvXvXjXeXeXeXvXvXvXsXeXeXsXvXjXjXeXeXwXsXjXjXsXwXeXeXjXjXjXsXeXeXsXvXvXvXeXeXeXjXvXvXjXeXeXeX",
"eXeXeXjXvXvXjXeXeXeXvXvXvXsXeXeXsXvXvXvXeXeXeXjXvXvXjXeXeXeXvXvXvXsXeXeXsXvXvXvXeXeXeXjXvXvXjXeXeXeX",
"vXvXvXsXsXeXaXvXvXjXsXeXeXaXvXvXaXeXeXsXjXvXvXaXeXeXaXvXvXjXsXeXeXaXvXvXjXeXeXsXjXjXvXaXsXeXsXvXvXvX"
};
