/* XPM */
static char *cf7fced9fba84f5ffdc7738a6008d1d5tuyKICJ3PuCXhbkm[] = {
/* columns rows colors chars-per-pixel */
"50 50 132 2 ",
"   c #473626",
".  c #4E3C2B",
"X  c #533F2C",
"o  c #533F30",
"O  c #55412E",
"+  c #5A442E",
"@  c #554231",
"#  c #5B4532",
"$  c #5E4934",
"%  c #5E4A38",
"&  c #604734",
"*  c #634C36",
"=  c #694E37",
"-  c #644D39",
";  c #694E39",
":  c #6C5237",
">  c #66513A",
",  c #6C533C",
"<  c #71563E",
"1  c #73593E",
"2  c #7A5B3F",
"3  c #6E5540",
"4  c #6E5841",
"5  c #715641",
"6  c #755A42",
"7  c #785E43",
"8  c #795E43",
"9  c #7A5D42",
"0  c #7C5E42",
"q  c #7D5E42",
"w  c #7D5F43",
"e  c #795A45",
"r  c #785C44",
"t  c #795D45",
"y  c #7A5C44",
"u  c #7B5D45",
"i  c #795F44",
"p  c #785E45",
"a  c #7A5F44",
"s  c #795D47",
"d  c #795F46",
"f  c #7A5E46",
"g  c #7B5F47",
"h  c #7C5E44",
"j  c #7E5E45",
"k  c #7D5D46",
"l  c #7C5E46",
"z  c #7E5E47",
"x  c #7A5D44",
"c  c #7C5B48",
"v  c #7C5D48",
"b  c #7E5E49",
"n  c #7B5E49",
"m  c #796243",
"M  c #7B6045",
"N  c #7E6044",
"B  c #7F6145",
"V  c #7C6146",
"C  c #7E6046",
"Z  c #7F6147",
"A  c #7D6247",
"S  c #7E6346",
"D  c #7F6447",
"F  c #7D6146",
"G  c #7A6049",
"H  c #7C6048",
"J  c #7D6149",
"K  c #7E6048",
"L  c #7F6149",
"P  c #7C6249",
"I  c #7E6348",
"U  c #7F604B",
"Y  c #7E6449",
"T  c #7E6249",
"R  c #815F44",
"E  c #815F46",
"W  c #805E45",
"Q  c #806047",
"!  c #816347",
"~  c #846247",
"^  c #806547",
"/  c #836447",
"(  c #866546",
")  c #816246",
"_  c #816148",
"`  c #806248",
"'  c #816349",
"]  c #826249",
"[  c #80624A",
"{  c #83634A",
"}  c #866248",
"|  c #84614B",
" . c #836448",
".. c #836549",
"X. c #80654A",
"o. c #846549",
"O. c #866449",
"+. c #876549",
"@. c #84644B",
"#. c #87654A",
"$. c #84664A",
"%. c #85664A",
"&. c #85674B",
"*. c #86674A",
"=. c #86674B",
"-. c #80644C",
";. c #85654C",
":. c #84664C",
">. c #85674D",
",. c #85654E",
"<. c #83644A",
"1. c #88664A",
"2. c #88664B",
"3. c #8A664C",
"4. c #8B674D",
"5. c #89664C",
"6. c #87684C",
"7. c #86684C",
"8. c #88694D",
"9. c #8A684D",
"0. c #88684F",
"q. c #8A684F",
"w. c #886A4E",
"e. c #896A4E",
"r. c #8C6A4F",
"t. c #896C4E",
"y. c #8B694E",
"u. c #856451",
"i. c #876951",
"p. c #8F6B51",
"a. c #8C6B51",
"s. c #936E53",
/* pixels */
". @ # $ - < H 6 , < 6 6 - & $ @ % , 6 6 , 6 , $ & > 3 , # # O & , 3 t t r , - = & - 6 < 6 < > * , & ",
"* 5 < 6 l 2.p.~ 6 [ V H 1 r t t , t ! 1 x ! l 6 r < V 6 * % - , , 6 [ 2.} H H < , r M H V t 6 6 r - ",
", t 6 6 6 ! t.^ < V V w , x [ ! , l t = 6 6 < , = 6 x , 3 * = E 6 y ^ H t l 5 < < 5 t 6 6 1 t t 6 * ",
", [ E H l [ 4.e.x t < t $.t , < - Y 6 , - - , 5 , < 1 6 5 5 m y , t V 1 , , < 3 6 > < 3 , , t 6 5 - ",
"6 e.e.[ V $.6.$.e , , l ;.$.t 6 , 5 - - = x M t , , l 6 > [ u.= + 5 V 5 , w c , , = 3 , 4 H r < 6 = ",
"V r.4.V 1 $.e.D , , r v ( 2.;.[ < , & - 6 H l l , 5 5 > , v 6 % # , H 6 t ;.l 6 r > 6 , 6 V 6 1 6 = ",
"< ! $.l -.;.6.V , r l w H $.e.$., < - , r < 6 v , , , > 5 < , , # , V , 6 ! H 6 6 , 5 < 6 2 t V G - ",
"M $.} [ [ ! ...., < V M 1 ..$.$.6 , , r [ x 6 y < , 6 - # - , & @ = < e H $.l 6 5 * r 5 t V 6 t H , ",
"H e.$.! H M [ e.- 4 6 6 6 r < t < 6 - 5 H , 6 $.6 > , & - & $ @ % $ , H 1 < 5 > - $ V t 6 H x x H = ",
"6 ..! [ 6...$.e., 6 V [ V l 6 , & V < , v r l 4.6 & , , > , > # @ * 3 & 6 r , , , , x 6 5 t V l s & ",
": , t ..[ [ ;.&., t H V [ w 6 , - [ < , y t V ..6 = 5 , - 5 , , - , 5 = t H < , , , , - * , t l - X ",
"t [ V l w 6 ~ } , H ;.[ < = 5 = $ 6 - - t s t t 6 = , - @ & & * % * 6 6 6 t 6 < , * & # & * ; # , * ",
", , & * & ; % - # & = # - = > = - - , 5 > & = , , - * * # . X & # @ # $ & # * - 3 * $ - - - # > , , ",
"t y < > O $ & - - & - # 3 y x V 6 6 [ t - , l 6 x 6 6 r 3 + 6 l , - * , e , r ^ ^ e.~ x ! l , -.V t ",
"[ $.[ 6 & - > , 6 , > - > , , , , > * - & - y r t 6 $ * # % 6 , , 6 , t [ 6 t -...r.r.V ! x - V [ V ",
"..r.r.H & > 6 < 6 < < , , , = > , * , r - - 6 l x 1 $ # # * < , 6 6 V ! ..< ! 2.$.! p.! l < > V ....",
"e.p.p.[ - > < < 6 5 5 , , * $ 6 6 1 t t , 5 y , t 6 * > - $ , y t t ....l 6 4.$.$.r V $...3 * ..e.e.",
"l H p.x # , t < , t l 6 * + > , 6 6 , 6 , > 6 , , , > > * # , < 6 V $.l 6 6 [ $.~ 1 l ^ x & - ..r.r.",
"V V ;.l % < 6 t < l ..l $ # > 6 < - > < & & 6 , , * * & # # 6 6 6 x } V V < [ ! e 6 , < , $ 6 w l $.",
"$.e.4.V = , 1 6 l V ! t & > , 6 t < , 5 , - < t > $ - > - $ 6 < 6 [ w V ..6 [ ..4 , , 5 , , r ..[ $.",
"! ..;.l % 6 V t t ~ V t * > 5 < < 6 > s , & s l 6 = , , , @ , 6 6 M w D ;.6 $.x < V 6 < t < l 6.6.$.",
"r < x t & , [ 6 l ..H , & , 6 , 6 , , 6 > $ t , - 5 > * - # - < t [ D ..;.t t 6 [ $.t < < 6 [ [ ! ..",
"t 1 l t % , 6 M [ ! H r - > , , < , , > - - 5 , , - > # - # , r 6 V D ..4.< , < t V l t 6 , Y 1 < y ",
"2.6.$.w & - x M V ..! < - - $ > 6 x , * # - < > - # @ # $ @ - < t V ..$.4.- > r 1 t ..[ 6 l H ! l l ",
"t ! ! 5 X # , , 6 < , & + & $ $ = 3 & , * - < & * # O @ O . # - - > 5 < 6 O @ - - , 6 , , = , M V y ",
"O > , * , l v 5 5 ..y [ e > > + O # - = , , = , * + 3 5 , 6 -.< & - 6 6 V t H V t - > > , > - O O . ",
"e l * r ....x , l p.H p.a., & , , , l l l x t H = & < 1 x l ^ < # * t H i.e.$.( r., . , x t 6 - $ X ",
"t Y $.V V V < > s &.x ..t - 6 V , = H ;.[ l M 6 @ < ..1 r t 6 * + - t $.^ p...^ s.3 + > > 6 r & % O ",
"t 4.a.e.6 < 5 - , ..H t , 6 H [ , $ t t U t H 6 # 5 ! 5 6 r 5 # # , [ ! l ! U i.p.< - 4 , M x % - % ",
"< M r.$.} t - # 5 ..l 6 6 5 V ^ , * t 1 6 , V < % 6 6 < , , & - > , $.Y ! 4.y 5 > O < 6 r l r , - $ ",
"y [ $.r.p.w 1 , < i.1 e 6 t V [ , 6 [ t , , r > $ 6 w , + % + , , 6 6.! [ p.H + - = , 1 , 6 6 , & @ ",
"t ! e.4.i.H r = x V 6 V l r v 6., 5 V l 6 , ; > > , H , $ - - = 5 t $.V x Y , > w , > r < , < y - @ ",
", ! i.$.! 6 t , < 6 e s 5 y V 6 > , 6 [ r s l , - , 6 > = > - , - , ..[ [ 5 5 t .., - 6 6 , v t - # ",
"t e...$.V , [ , * 6 , > > , & - - > 6 V 2 t l 3 , & - , - & = , O < ;.D t 6 5 6 $., * e < 1 V > - O ",
"H $.[ ....t H , - , - - , & , r - , M x 6 6 6 6 , - , $ & & - 5 $ < 4.H 5 x t t ..< , > 6 M < > - @ ",
"6 ..r e...t 6 3 > - & 5 r 6 v y > - < y 1 , 1 6 = 6 , - , , , , @ x e.y c V e e $.< - < t 6 = 3 3 * ",
"..4.$.e.r...x - # @ , , < , < , # O > 6 > , , *   # - - , - , 6 - 6 m 6 V 6 1 t v & @ > 6 , 6 < < = ",
"= & - , * - - @ . o O # @ # - , - - > # O $ + % + X @ $ # . @ $ $ O + O # o @ # + O $ & - # * - > $ ",
"* - * @ O @ # # % % # % # 3 , , < 6 5 + . - , < V 6 < 6 , . # - $ @ + # # # , , < , , 6 > $ , t 6 < ",
"H l 6 , , , * , , , , & = s , < * $ # X . > , 6 6 6 , < r % > & & , 6 , - & 5 , < , 6 < % - , < x l ",
"l l ! t , , , l 6 , $ X - [ t t , # $ - # - 6 < < < , 6 5 $ , , r 6 t 6 , , , = , , 6 > - & , 6 x V ",
"..[ ;.t > r 6 l 6 , & @ , H l < 5 , & , * , 3 < 5 5 , 3 , $ - r 1 x t M 5 # - , , , - & > - 6 t t t ",
"p.y [ 6 , , < M r < * - , ..6 < 6 , t l - = $ - 5 < 1 $ & # , < < H V l 6 * > , , 6 6 3 , * 6 t 6 6 ",
"$.v ^ t = , 6 6 6 , , , , 6 6 t , , $.x + 6 , , < x 6 = , $ , y t 6 y V e > - 6 < 6 6 , 3 # > < < l ",
"x H [ V - 5 [ t 6 , 6 5 = < r , = 6 r < # , > < 5 y , , y $ , x l w V E [ , 6 6 < 6 , , , - , < 6 6 ",
"x r l r , 6 [ , , < 6 r - < , , , 5 , > # 3 1 6 < y $ , w & , < 6 V [ ..e.6 G y 6 6 , < , , , 6 H t ",
"! 6 6 e , 6 r , 6 s l 3 * , 6 > & # = - @ , 5 , , , , t [ & , < 6 l ! ! ..6 , l t , 6 6 6 - , 6 x x ",
"[ , 6 6 = v H , < l y < > = , , - > - $ X , $ - & & 6 H , + , 6 x [ ..! [ , $ , 5 = 3 t < = , x V x ",
"V , x s > l H 6 M V 6 6 , , , < , , 6 , O , , 6 r * 6 6 , $ > , t V ..H 1 * $ , , > , t 5 = 6 G ..l ",
"t , 6 , & 6 , , < < > < * - , 5 = - , * # + , , & $ , - & . # $ * , , < r - % & $ * = < , - < , 6 < "
};
